<svg xmlns="http://www.w3.org/2000/svg" viewBox="0 0 800 500" role="img" aria-label="Bamboo grove — seitai 60 min">
  <rect width="800" height="500" fill="#E6EBE0"/>
  <defs>
    <g id="culm" fill="#57805C">
      <rect x="-13" y="96" width="26" height="73" rx="12"/>
      <rect x="-13" y="172" width="26" height="73" rx="12"/>
      <rect x="-13" y="248" width="26" height="73" rx="12"/>
      <rect x="-13" y="324" width="26" height="73" rx="12"/>
    </g>
    <g id="leaves" fill="#57805C">
      <path d="M0 0 C 30 -12 64 -12 90 -2 C 62 12 30 10 0 0 Z"/>
      <path d="M0 0 C 18 -26 46 -44 76 -46 C 60 -20 34 -4 0 0 Z"/>
      <path d="M0 0 C 26 6 50 22 62 44 C 34 38 12 22 0 0 Z" opacity="0.7"/>
    </g>
  </defs>
  <use href="#culm" x="150" opacity="0.3" transform="translate(0,30)"/>
  <use href="#culm" x="235" opacity="0.55" transform="translate(0,12)"/>
  <use href="#culm" x="320"/>
  <use href="#culm" x="405" opacity="0.75" transform="translate(0,20)"/>
  <use href="#culm" x="490"/>
  <use href="#culm" x="575" opacity="0.55" transform="translate(0,10)"/>
  <use href="#culm" x="655" opacity="0.3" transform="translate(0,28)"/>
  <path d="M333 176 C 348 166 362 156 376 148" fill="none" stroke="#57805C" stroke-width="5" stroke-linecap="round"/>
  <use href="#leaves" x="376" y="148"/>
  <path d="M503 252 C 516 244 528 236 540 230" fill="none" stroke="#57805C" stroke-width="5" stroke-linecap="round"/>
  <use href="#leaves" x="540" y="230"/>
  <path d="M247 208 C 260 200 272 192 284 186" fill="none" stroke="#57805C" stroke-width="5" stroke-linecap="round" opacity="0.55"/>
  <use href="#leaves" x="284" y="186" opacity="0.55"/>
</svg>
